<svg xmlns="http://www.w3.org/2000/svg" width="621.565" height="621.11" viewBox="0 0 621.565 621.11">
  <path id="_2" data-name="2" d="M214.36,451.63l2.064,20.844,7.245,43.5.012.027a1.561,1.561,0,0,0,.07.273l16.493,40.2c.02.047.066.066.09.109a.849.849,0,0,0,.035.09c.012.016,0,.039.012.054l14.7,21.569,26.808,36.682.027.023a1.47,1.47,0,0,0,.21.23l35.6,29.184c.035.027.082.019.121.043s.035.07.07.09l23.115,13.127L384.005,677.3a.665.665,0,0,0,.121.027,1.111,1.111,0,0,0,.218.078l48.563,8.519a1.484,1.484,0,0,0,.226.019h0l21.6.156.1,0L503.4,682.53l.035-.019a1.318,1.318,0,0,0,.281-.043l48.532-15.5c.047-.016.062-.062.105-.078.058-.027.125-.02.179-.051l45.435-27.006c.059-.031.078-.1.128-.136.035-.027.086-.016.117-.047l39.3-37.126a1.354,1.354,0,0,0,.121-.183c.019-.023.058-.023.078-.047l30.469-45c.027-.039.019-.093.043-.136s.078-.078.1-.133L687.945,507.1c.019-.047-.012-.1,0-.148s.07-.093.082-.156l7.643-51.551a1.3,1.3,0,0,0-.012-.246c0-.031.027-.05.023-.082l-4.511-50.059-4.807-20.75c-.008-.027-.039-.039-.047-.062s.008-.055,0-.082l-16.917-48.1a1.205,1.205,0,0,0-.14-.234c-.016-.027,0-.058-.02-.082l-27.567-40.515L623.248,275.2c-.019-.019-.051-.016-.07-.035s-.019-.055-.043-.074l-35.989-30.905a1.28,1.28,0,0,0-.273-.16l-.031-.035-42.124-20.244-25.479-9.419c-.039-.016-.074.012-.113,0s-.059-.055-.1-.062l-43.417-8.675a1.9,1.9,0,0,0-.214-.008,1.014,1.014,0,0,0-.105-.019l-44.909,1.644-21.962,3.463c-.023,0-.031.031-.055.035s-.047-.012-.074-.008l-39.674,10.186c-.054.016-.09.062-.14.082s-.078,0-.117.012L330.74,239.129c-.047.019-.074.07-.117.1s-.074,0-.1.027l-34.142,25.1c-.039.027-.047.078-.078.105s-.078.023-.105.055l-29.433,30.906c-.02.019-.016.054-.035.078-.031.043-.082.062-.113.109l-23.664,35.451c-.023.039-.012.086-.031.128s-.066.047-.086.082L225.824,369.93c-.016.035.008.07-.008.105s-.058.082-.07.129l-9.637,40.4c-.008.039.02.074.012.113s-.047.093-.047.148l-1.718,40.609c0,.019.016.035.016.054C214.372,451.541,214.356,451.584,214.36,451.63Zm9.392,38.973,3.26-9.688,5.422-16.1,8.293,19.519,2.606,6.139-6.607,31.478Zm368.49-103.982,44.239,15.55-8.13,50.713-39.51-19.052-4.258-2.049Zm-2.474-46.078,43.063,10.206,3.658,48.5-44.017-15.468-.21-3.4ZM340.619,425.9l10.369-1.862,15.235,60.6-22.11,3.4Zm.728,62.2-16.684-1.539-4.234-.393,7.588-60.728,9.24.576.6.035.207,3.7Zm31.922-132.9,28.6-7.378.1,10.276-46.67,1.737Zm-17.7,1.71,43.678-21.21,1.04,4.2,1.274,5.146Zm167.1,58.418-12.586,30.6-14.9-8.165-40.8-22.34,1.017-2.442,8.983-21.506,60.046,19.57Zm4.363-3.35,54.207,21.374-17.747,43.8-50.982-29.854,3.9-9.493ZM366.425,417.6l9.727-6.657,38.022,49.085-20.758,13.809Zm24.548,57.53L368.887,483.9l-15.246-60.642,10.35-4.343,1.484,3.1Zm-12.695-65.952,1.843-1.87,6.676-6.774,24.229,20.123,23.43,19.469-1.574,1.574-16.575,16.571ZM388.547,398.4l6.8-10.143,22.628,11.589,32.639,16.715L436.21,438ZM436.6,441.9l49,40.406L458.464,509.04l-24.12-29-16.3-19.6Zm1.753-2.135,2.618-3.891,12.107-18.016L490.48,438.34l18.308,10.023-5.391,8-16.033,23.812Zm24.178-51.71-60.374-15.908.771-3.759,1.55-7.522,62.691,3.194Zm-43.562-8.62L461.717,390.7l-9.785,23.43-55.275-28.3,4.682-11.039Zm-17.315-18.561-2.193,10.654-45.01-8.9Zm-3.05,13.3-2.61,6.155-1.815,4.277L353.209,365.2Zm-25.53,3.49,19.777,9.364-6.431,9.59-34.7-29.071Zm-1.3,10.292,12.9,10.806-1.063,1.079-6.992,7.093-26.6-37.208Zm2.727,20.774-1.445.989-7.744,5.3-17.245-43.269Zm-11.62,7.658-9.773,4.1-7.3-46.935Zm4.125,70.918,20.1,57.733-22.655,2.925-10.179,1.313-9.859-58.5Zm2.664-.744,22.577-8.963,30.524,54.453-23.687,8.874-9.275,3.478Zm25.02-10.253L415.908,462.2l40.4,48.567-31.057,20.057ZM428.213,532.2l29.908-19.317,13.123,14.662L497.156,556.5l-39.191,24.626-31.287-47.936Zm32.059-21.058,27.474-27.069,24.124,19.737,21.685,17.743L510.365,544.09,499.346,554.8Zm29.238-29.2L511.2,449.726l27.723,16.236,23.286,13.634-26.878,39.838Zm75.059-.908,41.992,26.582L576.2,552.562l-38.716-31.377Zm1.317-2.435,17.887-44.138,41.177,19.854,2.707,1.3-19.819,49.537Zm16.084-47.932-54.133-21.342,6.54-36.157,55.2,12.664ZM469.932,364.305l61.725,8.367L525.2,408.388,465.191,388.83Zm-.429-26.4,60.72-2.318,1.593,34.322L518.1,368.049l-47.928-6.5Zm-22.223,22.379-42.553-2.17-.105-10.876,62.123-9.068.658,23.138Zm-43.012-15.788-1.188-4.811-1.254-5.076,50.339-17.268,8.437-2.894,2.026,7.417,3.712,13.571Zm-3.428-12.473-4.558-8.422,47.149-26.247,5.784-3.221,5.119,8.838,5.173,8.928Zm-2.563,1.075-43.152,20.961,38.84-28.942Zm-44.407,18.452,13.443-14.483,18.99-20.454,6.034,6.271ZM367.6,332.694l-15.741,16.956L376.682,310.6l7.417,4.32Zm-18.351,15.9,16.376-41.232,8.422,2.228Zm7.612-26.652L346.322,348.49l7.393-41.466,4.164.027,4.885.035Zm-13.482,27.31-.748-16.282-1.071-23.446,3.669-.826,5.6-1.262Zm-.3,28.561.156-2.848,7.206,46.354-9.8,1.761Zm-13.318-63.1,9.08-4.164,1.363,29.752.479,10.412Zm8.1,108.574-9.31-.58,11.869-46.915ZM328.7,410.9l-2.859,11.3-8.383-2.8,16.329-35.381,3.786-8.2Zm-13.715,7.269-7.086-4.8,27.033-38.42Zm-9.123-6.7-5.516-6.525,32.44-31.739Zm25.5-40.737L298.881,402.5l-2.111-4.5-1.616-3.44Zm-37.013,21.066-1.8-8.979L319,372.427l11.772-4.624Zm-1.309-24.381,1.8-7.954.436-1.913,36.612,4.285ZM331,364.745l-38.61,15.161.066-3.05.144-6.591ZM292.94,396.352l2.337,4.978,1.578,3.35L271.142,438.8l-5.543,7.35-7.88-17.767.109-.1Zm5.578,10.708,5.788,6.852-25.335,49.872-11.935-14.946ZM284.3,459.382l22.172-43.639,7.456,5.052L296.6,477.2l-15.6-11.3Zm14.16,21.95,19.044,7.047.35,56.319-27.275-10.977Zm19.266,4.184-18.674-6.91,5.1-16.606,12.3-40.017,8.842,2.953Zm23.9,5.387,9.832,58.325-6.31-.76-24.529-2.949-.351-56.587Zm-14.767,58.149,25.207,3.027L356.29,566.1l10.751,35.744-38.419-5.512-3.408-21.194-4.308-26.8Zm28.058,2.929,22.632-2.922,10.587-1.367,12.309,26.7,10.7,23.193-41.166,4.429Zm35.927-5.017,14.241-5.337,19.122-7.164,8.78,13.455,22.445,34.38-41.5,14.736Zm66.224,37.683L486.2,622.133l-47.1,15.975-17.8-28.853-6.022-9.766Zm2.5-1.278,17.046-10.708,22.445-14.1,9.859,10.093,24.42,25-44.531,27.337ZM508.149,563.9l-6.914-7.082,34.478-33.511,38.7,31.365-38.832,37.309Zm68.429-7.479,28.884,23.1L588.443,595.73,564.67,618.37l-9.988-9.022L537.574,593.9Zm1.776-2.119,30.5-45.151,30.177,21.276-31.782,46.985Zm31.836-47.593L621.4,478.7l8.694-21.728,30.773,19.091-2.847,7.179-17.716,44.7ZM534.606,370.386l-1.613-34.731c1.7.136,4.69.382,8.43.686l45.544,3.712,2.692,42.962Zm40.69-34.057-42.7-3.479-9.337-31.275,22.192-1.25L574,298.712l12.333,38.517Zm-49.241-15.718,3.65,12.227-60.58,2.314-5.489-20.08-.374-1.356L520.47,301.9Zm-63.813-9.5-10.5-18.125L503.276,273.4l12.017,19.543,3.93,6.392ZM450.066,290.66,435.7,276.645l44.181-25.238,21.393,19.8Zm-2.626,1.3-52.762,29.371-1.808-1.878-4.55-4.729,34.2-27.75,10.817-8.772Zm-25.409-8.137-35.876,29.1-7.791-4.534,35.58-41.049,9.1,4.943,7.911,4.3Zm-46.284,23.364-2.111-.561-6.731-1.776,25.2-42.926,18.982,4.491Zm-10.72-4.592-1.021,1.737-9.52-.066,14.487-42.237,1.258-.016L389,261.761ZM351.5,304.457l-9.808,2.212,3.108-30.617.873-8.574,20.182-4.881Zm-11.191-11.483-1.476,14.537-9.684,4.445L323.3,277.848l19.484-9.189ZM338.367,352.6,328.224,336.8l-9.345-14.541,6.786-4.865,1.663-1.192Zm-5.434-3.346,3.482,5.418L309.41,331.787l7.012-7.28.37-.382Zm1.784,7.6-18.133-7.713-14.841-6.314,5.936-8.878Zm-1.531,2.353-36.978-4.332,4.18-9.621Zm-37.742-9.509-2.15,4.951-20.377.035-12.5.019L267,339.667l2.368-5.407,28.44,9.992Zm-2.972,7.717-2.4,10.56-.109.031-35.486,10.552L256.246,371l3.159-13.54Zm-2.649,13.517-.16,7.257-.062,2.964-36.34,21.3.261-7.911.425-12.94Zm-21.136,25.678,21.3-12.485.783,3.915,1.11,5.543-34.926,31.762-3.627-19.734ZM262.74,446.52l1.024,2.31L253.1,470.382l-8.235,16.649-11.008-25.92,21.9-30.317Zm2.824,4.9,12.13,15.188-10.739,34.365-3.576,11.437-16.984-22.227Zm-.51,66.567L287.7,535.294l1.426,43.554-27.536-21.876,1.535-17.26Zm22.982,14.093-22.527-17.221L277.246,477.3l2.731-8.729,13.965,10.112,1.92,1.394-6.314,41.976Zm29.975,15.655,3.817,23.742,3.829,23.82-33.706-14.432-.662-20.209-.783-23.987Zm8.32,50.853L339.688,634.2,302.137,617.45,292.718,584.2Zm3.2.662,38.536,5.528,18.3,37.73-43.215-6.941-1.578-4.207Zm41.559,5.426,41.4-4.452,23.668,38.369-46.561,4.234Zm41.47,38.836,25.378-2.306,7.674,8.636,14.417,16.224-48.707,3.884-19.851-24.517Zm28.362-3.1L488.108,624.4l24.692,25-49.467,16.224Zm64.732-2.17L490.69,623.083l44.695-27.439,24.186,21.841,2.816,2.544-46.822,28.249Zm58.979-16.333,18.222,13-46.125,27.528-18.787-12.364Zm2.228-1.807,40.792-38.848,17.809,13.891-40.211,38.084Zm42.568-40.963,31.79-47,17.3,14.74-1.609,2.376L627.26,593.042Zm33.161-49.467,20.525-51.784,16.746,15.464-1.114,2.824-18.97,48.146Zm21.662-54.5-.2-.187,8.1-52.723L688.3,438.2l-7.787,51.995Zm-2.727-1.948L630.93,454.244l8.149-50.846,30.605,16.73ZM639.347,400.4,635.69,351.93l29.639,14.358,3.038,36.024,1.235,14.623Zm7.183-46.284-11.277-5.465-7.748-23.029L620.8,305.692,648.657,317.8l7.872,22.675,7.713,22.215Zm-25.288-38.443,10.786,32.051-3.28-.779-39.4-9.337-12.383-38.669,40.492,5.5Zm-44.267-19.52-1.172-.16-20.634-32.016,36.717,1.726,4.308,6.474L615.648,301.4Zm-4.437-.125-21.872,1.235-28.49,1.6-16.1-26.177,9.991-1.9L551.9,264Zm-68.258-25.81L486.32,253.6l-3.572-3.3,39.627-12.812,27.166,24.155Zm-24.081-22-25.413-13.038,32.608-15.11,31.642,15.589Zm-13.7-3.923,10.677,5.481-43.764,25-17.3-9.4L451.8,236.749ZM413.29,264.1l-19.278-4.561,6.4-7.148,20.232-22.573,27.867,6.034ZM395.8,253.4l-4.994,5.574-20.337.277,17.56-28.681,13.7-.382,15.25-.421Zm-23.863-1.839-4.834,7.9-20.567,4.974,8.975-25.795,28.783-7.261ZM347.8,252.4l-4.511,12.968-5.742,2.707-14.276,6.735,1.239-21.432,27.544-13.213Zm-21.214,60.946-7.982,5.722-1.118.8-14.677-27.326,10.6-7.713,7.362-5.356Zm-11.269,8.332-8.013,8.316-9.9-8.539-12.337-10.638,15.64-16.349Zm-9.754,10.463-2.54,3.8-3.907,5.843-28.358-9.964,8.574-12.835,4.012-6.007Zm-32.327-9L267.983,331l-7.876-1.562-7.561-1.5L270.32,301.31l10.926,9.828Zm-6.571,10.42-9.341,21.339-18.912,4.363,12.66-28.794Zm-10.2,24.369-5.072,21.74L230.128,392.1l4.035-17.007,3.015-12.718Zm-5.325,25.09-.7,21.28-2.065,1.952L228.223,425.3l1.165-29.569Zm-.234,24.642,3.685,20.049-21.5,29.76L228.2,429.131ZM226.381,515.409l-1.675-15.274,11.113,26.858,2.664,17.915Zm19.126-21.833,16.972,22.207-.362,4.063-3.023,34.006-13.439-18.106-7.016-9.45ZM257.7,575.728l-14.861-20.314-3.5-23.543,19.52,26.3,5.551,26.73Zm7.023-2.894-2.446-11.787,15.7,12.477,11.413,9.068,9.072,32.027L283.389,602.36,268.306,590.1Zm19.313,40.391-10.459-15.285L299.967,619.4l.315.448,11.281,15.944Zm35.479,29.024-14.495-20.49.982.436,35.253,15.725,16.181,21.592Zm25.9-3.377-.121-.16,34.622,5.559,8.11,1.3,8.994,11.113,10.3,12.722-44.765-7.666Zm39.639,35.857-15.8-9.037,40.971,7.015,15.624,9.173Zm67.451,7.016-19.036,1.41-18.289-10.736,28.237-2.252,19.145-1.527,17.919,11.032Zm13.657-14.132,33.784-11.082,15.2-4.982,18.378,12.091-30.73,9.879-17.767,5.707ZM503.1,679.764l-10.019-.226,40.6-13.049,3.155-1.017,8.293.865Zm48.423-15.538-.405-.039-10.147-1.059,20.969-12.52,23.621-14.1.308.094,8.013,2.45ZM596.9,637.087l-8.854-2.7,36.016-34.111,3.634-3.443,1.85,1.332,4.854,3.5Zm39.319-37.524-5.087-3.662-1.659-1.2,30.878-45.614,5.017,7.428Zm30.493-45.992-4.807-7.117,19.562-49.65.183.475,3.529,9.3Zm19.36-52.423-3.163-8.324,7.226-48.259,2.766,10.549Zm2.376-95.86,3,33.41-.319-1.215-2.984-33.5Zm-4.285-14.9,3.892,43.686-2.454-2.423-13.069-12.9-3.3-39.07-.888-10.549,7.849,8.129,7.491,7.756Zm-2.547-11.483-13.77-14.261-7.105-20.466L653.2,322.458l13.7,14.6Zm-42.1-82.164,17.533,25.779-6.205-6.61-17.42-25.721ZM621.328,277.26l1.278,1.885,23.353,34.47-26.539-11.534-20.965-31.49-2.2-3.315,23.247,9.255Zm-35.794-30.824,29.523,25.355-21.681-8.632-28.019-24.307Zm3.2,16.353-31.248-1.469-4.375-.206-14.261-12.683L526.219,237.2l31.918-.954Zm-35.786-29.153-29.943.9-6.98-3.44-23.614-11.639,2.676-.249,23.419-2.174ZM475.3,208.344l33.909,6.774-21.72,2.022-30.578-6.252Zm1.367,9.4,6.357,1.3L451.48,233.664l-27.688-5.995,25.2-15.581ZM409.141,213.4l4.269-.152,30.162-1.06-23.836,14.736-22.947.635-5.481.152Zm-40.765,11.437,1.313-1.375,33.091-8.5-16.166,12.979-27.875,7.031Zm-36.3,16.913.2-.3,30.469-14.7-9.119,9.586-26.461,12.695Zm-33.7,24.568L325.747,246.2l-.65.962-2.933,4.347L297.28,269.762Zm23.251-10.993-.234,4.039-.982,16.949-18.686,13.6L296.314,273.9ZM298.5,288.993l.946,2.793-11.6,12.126-4.853,5.076-9.01-8.1-1.94-1.745L294.1,275.99Zm-4.437-18.23-.347,1.1-.253.795-23.317,24.467-.545-.674ZM267.87,298.708l.358.444.117.144-19.036,28.518h0l-1.266.608Zm-22.71,34.146.269-.129,2.057-.982-12.617,28.7-3.4,3.521Zm-16.816,38.318,5.185-5.368-6.778,28.561L220.6,403.64Zm-9.528,40.157,6.657-10.042.989-1.492-1.126,28.5-3.284,6.844-4.655,9.7Zm7.265,21.8,4.783,27.692-8.137,24.159L217.168,451.7Z" transform="translate(45.757 -268.728) rotate(21)" fill="#747474"/>
</svg>
