<svg xmlns="http://www.w3.org/2000/svg" width="223.604" height="224.019" viewBox="0 0 223.604 224.019">
  <path id="_6" data-name="6" d="M390.259,557.169l-.261-.9-.008-.008v-.015l-6.423-18.535a.447.447,0,0,0-.04-.063c-.005-.012,0-.026-.01-.037l-10.343-16.285c-.012-.019-.036-.026-.051-.044s-.01-.033-.022-.045l-13.557-13.12a.465.465,0,0,0-.086-.06l-.007-.01-15.91-9.319-2.936-1.5H340.6a.521.521,0,0,0-.079-.034l-4.76-1.359h0l-13.721-3.786-3.24-.579-.011,0-.022-.008-3.816-.412h-.01l-.018,0-4.181-.219-.01,0-.014,0-4.309-.014-.015,0h-.01l-4.189.194-.019,0h-.008l-3.839.4c-.01,0-.016-.007-.025-.005l-3.312.571-13.569,3.69h0l-4.818,1.328a.5.5,0,0,0-.062.027c-.008,0-.016,0-.023.005l-3.038,1.5L257.615,507.7l-.008.01a.511.511,0,0,0-.084.059L243.95,520.744c-.012.012-.011.033-.022.047s-.038.023-.051.041l-10.413,16.131c-.006.008,0,.019-.007.029a.349.349,0,0,0-.032.047l-.687,1.634-6.31,17.672c0,.007,0,.012,0,.019a.508.508,0,0,0-.026.089l-2.154,18.652a.408.408,0,0,0,.005.057.334.334,0,0,0-.005.053l2.108,18.636a.478.478,0,0,0,.026.089c0,.007,0,.012,0,.019l6.248,17.655.669,1.612c.005.014.019.019.026.031l0,.006c.007.012,0,.027.011.038l10.3,16.075c.012.019.036.026.051.044s.008.031.021.044l13.414,12.948a.589.589,0,0,0,.082.059l.008.011,15.7,9.215,2.97,1.493.016,0a.522.522,0,0,0,.068.029l4.764,1.359h0l13.457,3.773,3.229.587h.022l.011,0s3.431.385,3.808.423l.011,0,4.17.238h0l4.273.036h.021l4.144-.171.008,0h.019l3.726-.367.011,0a.553.553,0,0,0,.081-.007l3.26-.543,13.6-3.555h0l4.74-1.288a.465.465,0,0,0,.071-.03l.016,0,2.958-1.46,15.908-8.984a.167.167,0,0,0,.023-.021.48.48,0,0,0,.07-.047l13.7-12.794c.012-.011.01-.03.021-.042s.04-.025.053-.044l10.6-16c.008-.012,0-.027.011-.041a.535.535,0,0,0,.04-.059l6.775-18.343v-.015l.007-.008.3-.99,2.349-18.706a.339.339,0,0,0,0-.052.408.408,0,0,0,.005-.057ZM317.121,658.192l3.49-1.421,2.47-.231-5.532,1.611Zm-11.442.454-1.322-1.59,1.158.01,5.435.042-1.443,1.571Zm-61.3-29.914-9.469-14.784,3.368,1.146,9.076,14.954L244.982,629Zm54.72-136.439-3.527,1.51-.446.045-2.288.226,5.647-1.718Zm3.231-.326,3-.14-1.334,1.592-5.649.255.955-.409Zm4.3-.189,3.864.011,1.458,1.642-2.521-.008-4.17-.012,1.3-1.547Zm11.938.623,5.72,1.755-2.613-.276-1.841-.782-1.762-.749Zm21.622,5.7,1.693,1,10.173,6.028-3.189-.855-10.243-6.623Zm3.058,150.39-8.957,5.586-4.34.712,3.638-2.783,4.922-3.764,3.731-.561,3.04-.457Zm-81.619-4.93-11.534-11.6,6.4,1.471L266.633,644.9l-.439-.118Zm20.1-146.969.3-.051,4.17-.7-8.509,6.724-6.924,1.072,5.915-3.8ZM333,496.323l2.44.431,11.014,7.12-6.852-1.114-.909-.719-7.656-6.065ZM228.055,554.99l6.195-17.377,3.731-1.225L231.961,554.3l-1.816.322Zm79.366-53.008,5.3.016,2.15.007,1.855,11.747-16.111-.057.99-6.27.861-5.46,2.707.008Zm18.439.52,1.857.088,4.577,10.06.788,1.734-15.372-.613-1.853-11.736,8.762.411Zm58.342,53.4.892,9.13,1.029,10.528-9.048-.046-1.727-20.433,4.744.439Zm-152.517,9.267,1.084-10,8.932-.734-1.934,20.326-9.117-.053Zm20.529-39.8-4.476,8.326-8.025,1.282,9.436-15.418,7.019-1.541Zm97.193,106.694,5.824-13.313,12.281-1.1-8.673,15.641-10.546,1.326Zm-2.23,2.673-11.359.8-2.19.155,4.556-16.09,15.956-.784-4.057,9.277ZM278.152,503.485l10.345-.932-5.342,11.7-6.88.509-6.445.476,4.2-5.936ZM275.46,515.8l7.369-.545-4.414,16.281-16.049.829,6.8-16.1Zm94.034,37.967-8.939-.5-4.315-19.441,12.523,1.265,5.4,18.933Zm4.873,1.244,1.734,20.5-14.048-.073-.045-.7-1.326-20.493,5.13.285Zm-62.8,20.158-1.607-.008-.82,0-2.219-.012-1.645-.01h-.11l-7.867-.044.452-22.008,9.222.042,12.376.059.131,13.05.09,8.979-7.855-.042Zm-63.348-21.043,8.192-.374-1.589,21.1-14.074-.079,1.941-20.4Zm31-21.647,18.674-.408-1.073,20.043-20.539.179,2.72-18.344ZM256.7,562.7l.676-8.983,12.158-.3,5.661-.138-1.081,21.683-1.443-.008-16.887-.094Zm39.619,12.387-21.234-.116,1.081-21.7,20.6-.181ZM275.995,597.6l-.909-21.658,21.232.118L296.541,598Zm-1.879-21.664.906,21.635-4.414-.156-13.354-.475-1.467-21.107Zm3.75,42.275L261.74,617.2l-4.329-19.285,15.481.55,2.213.078,1,7.143Zm-15.858-84.853,16.216-.839-2.936,19.791-17.745.432,2.557-11.1Zm16.844,84.9-.627-4.471-2.138-15.217,20.48.405.861,19.891-12.565-.411Zm41.173-20.111.505-21.958,21.239.115-1.189,21.69-15.132.114Zm27.126-64.891,8.074.486,4.325,19.486-17.738-.6-1.759-12.534-1.027-7.321Zm13.928,42.18-18.331-.1-.855-21.74,17.812.606.831,12.827Zm-40.765-22.241,12.664.233c3.579.064,6.783.123,7.943.145l.846,21.5.01.263-21.241-.115-.152-15.1Zm-.942-21.037,18.669.563,2.787,19.879-20.54-.375-.884-19.381Zm22.085,66.793,17.7-.412-4.641,19.286-16.127.793Zm.1-.973,1.188-21.669,18.329.1-1.745,21.158Zm14.4-65.152-6.719-16.14,10.6,1.456,8.446,15.927Zm-7.826-16.276,6.742,16.2-16.029-.964L334.5,515.439l5.187.423Zm-10.3,15.194-18.52-.558-1.482-16.438,15.647.624Zm-19.428.4.917,20.072-8.612-.041-12.922-.06.627-11.72.446-8.331,15.927.066Zm-18.888-17.459-.69,7.269-.868,9.146-18.525.405.95-3.505,3.472-12.8,10.139-.331Zm-42.973,38.091L242.9,553.4l5.527-18.807,12.57-1.157Zm-15.8,22.973,7.183.041,6.89.038,1.02,14.667.445,6.4-13.684-.779-.188-2.067Zm15.666,22.125,4.32,19.238-12.5-1.288-5.42-18.724Zm5.688,20.324,15.955,1,4.248,16.122-13.553-1.147-.2-.472Zm21.226,17.192-3.2-12.131-1.059-4.02.491.016.294.01.569.019,17.069.557,1.374,16.223-2.279-.1Zm14.193-37.372-.224-21.954.454,0h.137l.981.005,2.261.012h.3l2.351.012.56,0,15.224.083-.364,15.843-.141,6.122-10.641-.066Zm22.471,1.1,20.488-.153-3.075,19.69-18.581.357,1.016-17.274Zm35.546,18.63,4.63-19.241,13.58-.609-5.729,18.728ZM316.849,514.723l1.482,16.446-14.724-.06-4.677-.019,1.558-16.424,5.906.021Zm-32.606-.515,5.36-11.741,11.876-.48-1.849,11.719ZM257.069,632.551l-8.361-15.7,12.3,1.267,6.626,15.914-1.985-.278Zm43.61,16.026-11.767-.6-5.205-11.6,10.962.476,4.3.188.527,3.563ZM298.4,618.884l-.333-7.675-.528-12.222,11.274.068,10.2.063-1.169,19.9-11.355-.078ZM317.061,636.2l1.678-16.212,2.754-.053,15.676-.3L332.6,635.747l-12.908.372Zm56.906-39.28-2.528.114-11.136.5.493-5.973,1.248-15.145,14.047.073-1.1,10.557ZM348.42,505.177l10.5,11.86-10.182-1.4-5.338-7.582-2.936-4.172Zm-9.285-1.5,8.335,11.842-13.3-1.084-5.347-11.756.06.005Zm-70.319,1.236,8.009-1.24-7.3,10.308-.965,1.363-.642.083-9.6,1.239,8.757-9.811Zm-.754,11.475-3.605,8.53-3.174,7.511-5.068.465-7.307.672,8.5-15.8,7.32-.946Zm-28.946,19.665,8.253-1.319-5.5,18.718-8.842.727,4.886-14.54Zm.65,39.684,1.846,20.295-8.9-.835-1.6-15.161-.46-4.352,5.436.031Zm-6.8,20.458,8.813.827,3.765,13.007,1.629,5.629-8.2-1.4-4.585-13.79Zm29.717,38.116,5.454.764.609.869,7.491,10.7-7.921-1.309L257.99,633.661Zm6.723.883,6.37.538,6.845.58,5.189,11.563-10.242-1.028-5.891-8.411Zm30.438.891-1.376-16.233,11.1.075,8.2.056-1.679,16.22-7.257-.053ZM336.7,648.406l-8.764,6.7-6.282.591,5.61-6.49Zm-8.872-.219,5.465-11.5,3.623-.253,9.584-.672-.816,1.115-7.629,10.439-.784.067ZM375.19,554.1l-5.372-18.844,8.17,1.392,5.966,18.266Zm-5.733-19.891-8.378-15.8,6.489,1.493.446.1,9.381,15.555Zm-2.662-15.48-6.382-1.467-1.6-1.811-8.708-9.835,4.99,1.34,11.435,11.505Zm-28.983-16.148-9.53-.922-5.59-6.692,6.351.671Zm-34.243-8.164-1.889,6.6-11.324.457,5.572-6.712,7.643-.345Zm-64,120.933,7.97,1.363,8.293,15.577-6.954-1.6-.45-.742Zm50.1,33.641,11.181.569.026,0,1.8,6.481-7.562-.423Zm12-.378-1.709-11.549,8.35.062,7.64.056-1.154,6.713-.828,4.814-6.772-.052Zm13.287.078,1.979-11.517,15.264-.439-5.482,11.537-10.628.379Zm24.441-1.56,8.382-11.47,10.117-1.271-10.6,11.553-.7.1Zm20.695-14.091,8.6-15.514,7.914-1.258-9.612,15.271Zm8.985-16.558,5.7-18.64,8.751-.721-6.3,18.065Zm14.722-20.358-8.844.729,2.116-20.361,4.434.022,4.614.025-1.4,11.812ZM312.671,494.4l.676,2.283,1.286,4.347-1.751-.005-.981,0-1.421,0-.922,0L302.692,501l1.165-4.068.731-2.548,3.89.011Zm-18.109.474-5.523,6.653-9.575.861,8.7-6.879,1.89-.187Zm-27.419,10.455-9.677,10.841-.628.7-3.559.781-2.915.641,11.7-11.657,4.174-1.077Zm-39.384,50.695,2.131-.376,1.887-.334-2.1,19.393-2.31-.014-1.752-.011,1.5-13.033Zm-2.149,19.628,1.871.012,2.191.014.962,9.122,1.08,10.245-4.006-.757-.164-1.46Zm2.4,19.68,3.89.735,5.932,17.844-3.7-1.258-.616-1.745Zm42.264,51.308,6.819,1.126,8.348,6.671-4.387-.783L278.81,652.2Zm17.156,8.144-8.546-6.828,9.463.948,5.394,6.571-2.342-.256Zm16.26,1.292-1.8-6.5,7.4.057,4.429.034-2.02,6.468-5.751-.045Zm11.047-6.412,2.406-.086,8.791-.315-3.474,4.017-2.191,2.535-7.548.3ZM359.4,634.181l6.34-1.38-11.8,11.459-4.948,1.26ZM386.679,580l.411-3.464,3.942.018-2.345,18.711-3.9.707Zm4.363-4.417-3.943-.018-.149-1.519-1.757-17.99,3.893.747,1.2,11.517Zm-3.9-20.139-2.127-.409-3.394-10.388-2.5-7.656,2.183.758,1.421.494,6.07,17.518Zm-17.132-35.642-1.41-.638-10.81-10.876,1.128.568,11.5,11.13Zm-48.7-24.977,5.642,6.753-11.3-.53L313.7,494.44l3.455.177Zm-52.942,9.184-3.318.855,11.864-6.96,1.682-.464Zm-23.76,17.47,3.018-1.3-9.2,15.038-.545.179-2.859.939Zm56.8,136.93-3.876-1.688,5.539.309,1.284,1.547Zm56.354-16-1.081.527,10.88-10.565,1.781-.776Zm20.913-106.6-9.14-15.154.94.424,1.95.882,9.519,14.986ZM314.782,492l.605.257,3.456,1.47-.148-.008-5.434-.278-1.415-1.594Zm-56.643,16.517.233-.112,1.062-.513L248.566,518.72l-1.072.463-.924.4Zm-11.1,122.451,1.243.549,7.255,7.3,3.435,3.455-1.027-.506-.208-.1-11.394-11ZM276.3,652.309l-1.239-.736-10.417-6.2,3.223.864,10.039,6.531Zm21.357,5.7-5.517-1.725,2.6.285,1.778.773,1.662.724Zm14.616-.9h.01l5.467-.218-1.172.478-2.815,1.146-2.891.118Zm35.45-10.261,3.11-.793-11.81,6.746-1.5.408Zm23.7-17.208-2.256.983-.62.271,9.36-14.869,3.26-1.089Zm10.554-16-3.6,1.2L384.6,597l1.482-.268,2.3-.417Z" transform="translate(75.541 -539.594) rotate(25)" fill="#505050"/>
</svg>
