<svg xmlns="http://www.w3.org/2000/svg" viewBox="0 0 42.74 72.56"><defs><style>.cls-1{fill:#333333;}</style></defs><g id="Layer_2" data-name="Layer 2"><g id="Layer_1-2" data-name="Layer 1"><rect class="cls-1" x="38.15" width="4.6" height="72.56"/><path class="cls-1" d="M5.7,0S.66,0,0,5.1V72.56H4.35v-34h3v34h4.59V5S11.65,0,5.7,0ZM4.35,34.58v-29S4.31,4.17,6,4.17c0,0,1.25-.1,1.38,1.46v29Z"/><path class="cls-1" d="M26.49,59.12v11H23.57V56.72c0-.71,1.37-.71,1.37-.71a16.9,16.9,0,0,0,3-.25c3.21-.68,3-3.33,3-3.33V39.85S30.69,37,24.74,37c0,0-5,0-5.7,2.87V50.61h4.35V40.13s0-.76,1.62-.76c0,0,1.25-.06,1.38.82V52.43s.21,1.24-1.81,1.27c0,0-5.25.12-5.54,2.83v16H31.15V59.12Z"/></g></g></svg>