<?xml version="1.0" encoding="UTF-8"?>
<svg id="Layer_2" data-name="Layer 2" xmlns="http://www.w3.org/2000/svg" xmlns:xlink="http://www.w3.org/1999/xlink" viewBox="0 0 360 360">
  <defs>
    <style>
      .cls-1 {
        fill: none;
      }

      .cls-2 {
        clip-path: url(#clippath);
      }

      .cls-3, .cls-4 {
        fill: #f4f4f4;
      }

      .cls-5 {
        fill: #07eabf;
      }

      .cls-6 {
        fill: #424242;
      }

      .cls-7 {
        fill: #2d2629;
      }

      .cls-8 {
        fill: #5e3566;
      }

      .cls-4, .cls-9 {
        isolation: isolate;
        opacity: .5;
      }
    </style>
    <clipPath id="clippath">
      <circle class="cls-1" cx="180" cy="180" r="180"/>
    </clipPath>
  </defs>
  <g id="Layer_1-2" data-name="Layer 1">
    <g id="_그룹_78" data-name="그룹 78">
      <g id="Layer_2-2" data-name="Layer 2-2">
        <g id="Layer_1-2" data-name="Layer 1-2">
          <circle id="_타원_82" data-name="타원 82" class="cls-5" cx="180" cy="180" r="180"/>
          <g id="_그룹_60" data-name="그룹 60">
            <g class="cls-2">
              <g id="_그룹_59" data-name="그룹 59">
                <g id="_그룹_58" data-name="그룹 58">
                  <path id="_패스_120" data-name="패스 120" class="cls-7" d="M119.47,77.55c1.13-2.67-14.64,2.35-16,2.93-7.75,3.35-13.9,9.55-17.2,17.32-2.94,8-4.17,16.53-3.64,25.04,.61,26.14,20.34,59.11,1.64,82.41-9.67,12.04-26.61,15.02-39.4,23.68-24.33,16.42-29.26,53.15-15.16,78.94s43.01,41.04,71.99,45.34c28.98,4.29,58.66-.84,87.38-7.32,19.92-4.53,40.29-9.95,56.53-22.36,38.22-29.26,20.41-65.89,2.86-100.15-11.24-21.96,8.92-32.29,17.74-59.55,15.84-49.02-6.85-96.61-50.22-115.4-71.01-30.79-96.35,28.81-96.54,29.14Z"/>
                  <path id="_패스_121" data-name="패스 121" class="cls-8" d="M320.17,359.98H39.88s13.09-50.47,31.68-80.37c18.58-29.89,86.82-40.08,86.82-40.08l21.64,3.61,21.61-3.61s68.31,10.16,86.82,40.08c18.51,29.92,31.73,80.37,31.73,80.37Z"/>
                  <path id="_패스_122" data-name="패스 122" class="cls-3" d="M117.53,249.5c32.85,46.93,94.94,40.95,124.93,0,0,0-60.19-28.04-124.93,0Z"/>
                  <path id="_패스_123" data-name="패스 123" class="cls-3" d="M179.45,266.23h0c-11.64-.06-21.06-9.48-21.12-21.12v-40.71h42.38v40.59c-.01,11.73-9.53,21.23-21.26,21.24Z"/>
                  <path id="_패스_124" data-name="패스 124" class="cls-6" d="M200.71,199.71v24.92s-7.04,12.39-21.26,12.39c-11.33,0-21.12-10.75-21.12-10.75v-26.56h42.38Z"/>
                  <path id="_패스_125" data-name="패스 125" class="cls-3" d="M120.04,156.09c-11.5-17.43-24.83-6.22-24.83,6.05,0,17.79,19.31,33.11,30.34,20.34,11.03-12.76-5.51-26.4-5.51-26.4Z"/>
                  <g id="_그룹_55" data-name="그룹 55">
                    <path id="_패스_126" data-name="패스 126" class="cls-7" d="M103.34,169.03c-1.37-1.79-1.44-4.39-.2-6.97,1.21-2.81,3.87-4.71,6.91-4.96,2.17-.09,5.55,1.05,8.52,6.6l-2.07,1.11c-1.91-3.56-4.09-5.34-6.4-5.36-2.31,.05-4.06,1.99-4.85,3.63-.84,1.73-.85,3.47-.04,4.52l-1.87,1.43Z"/>
                  </g>
                  <path id="_패스_127" data-name="패스 127" class="cls-3" d="M234.78,156.09c11.47-17.43,24.8-6.22,24.8,6.05,0,17.79-19.29,33.11-30.32,20.34-11.03-12.76,5.52-26.4,5.52-26.4Z"/>
                  <g id="_그룹_56" data-name="그룹 56">
                    <path id="_패스_128" data-name="패스 128" class="cls-7" d="M251.48,169.02l-1.87-1.42c.8-1.05,.77-2.78-.07-4.52-.87-1.79-2.72-3.61-4.9-3.64-2.21,.05-4.45,1.81-6.32,5.36l-2.08-1.1c2.87-5.44,6.09-6.61,8.33-6.61h.1c3.06,.23,5.75,2.14,6.97,4.96,1.26,2.57,1.19,5.18-.16,6.96Z"/>
                  </g>
                  <path id="_패스_129" data-name="패스 129" class="cls-3" d="M177.34,224.63c-45.38,0-72.22-49.63-61.62-100.55,8.75-41.96,114.6-41.96,123.36,0,10.61,50.92-16.31,100.57-61.74,100.55Z"/>
                  <path id="_패스_130" data-name="패스 130" class="cls-4" d="M171.29,173.64c4.69,2.35,15.21-2.7,15.42,0s-5.59,5.11-7.7,5.11-7.72-5.11-7.72-5.11Z"/>
                  <g id="_그룹_57" data-name="그룹 57">
                    <path id="_패스_131" data-name="패스 131" class="cls-7" d="M177.26,178.56c-.93-.11-5.67-.9-7.99-5.07-1.94-3.48-1.56-8.2,1.13-14.02l2.13,.99c-2.36,5.1-2.77,9.1-1.21,11.89,1.8,3.25,5.78,3.83,6.23,3.88l-.29,2.33Z"/>
                  </g>
                  <path id="_패스_132" data-name="패스 132" class="cls-7" d="M159.55,120.94c-2.84-6.34-19.45-3.43-21.82,1.08s5.44,5.77,11.22,5.49,12.32-2.53,10.61-6.57Z"/>
                  <path id="_패스_133" data-name="패스 133" class="cls-6" d="M195.36,120.94c2.84-6.34,19.45-3.43,21.8,1.08s-5.42,5.77-11.19,5.49-12.41-2.53-10.61-6.57Z"/>
                  <path id="_패스_134" data-name="패스 134" class="cls-7" d="M147.44,145.34c.03,2.49,2.07,4.49,4.56,4.46,2.49-.03,4.49-2.07,4.46-4.56-.03-2.49-2.07-4.49-4.56-4.46-2.45,.03-4.43,2.01-4.46,4.46v.1Z"/>
                  <path id="_패스_135" data-name="패스 135" class="cls-7" d="M207.35,145.34c.01,2.53-2.02,4.59-4.55,4.6-2.53,.01-4.59-2.02-4.6-4.55-.01-2.53,2.02-4.59,4.55-4.6h.05c2.51,0,4.55,2.04,4.55,4.55h0Z"/>
                  <path id="_패스_136" data-name="패스 136" d="M160.42,184.95c17.36,1.88,28.98,0,37.22,.23,0,0-10.4,14.71-22.64,11.73s-14.57-11.97-14.57-11.97Z"/>
                  <path id="_패스_137" data-name="패스 137" class="cls-9" d="M172.41,201.24c6.36,0,15.49-3.28,16.9,0s-6.29,9.95-11.17,9.41-12.98-9.43-5.73-9.41Z"/>
                  <path id="_패스_138" data-name="패스 138" class="cls-7" d="M147.44,79.34c0,42.75,81.14,63.36,96.89,53.2s3.47-46.39-38.01-56.32-58.85-9.62-58.87,3.12Z"/>
                  <path id="_패스_139" data-name="패스 139" class="cls-7" d="M147.61,79.03c10.37,20.65-18.09,66.26-34.23,63.36s-16.17-20.88-3.57-42.07c12.6-21.19,32.9-31.09,37.8-21.28Z"/>
                </g>
              </g>
            </g>
          </g>
        </g>
      </g>
    </g>
  </g>
</svg>