<?xml version="1.0" encoding="UTF-8"?>
<svg id="Layer_2" data-name="Layer 2" xmlns="http://www.w3.org/2000/svg" xmlns:xlink="http://www.w3.org/1999/xlink" viewBox="0 0 360 360">
  <defs>
    <style>
      .cls-1 {
        fill: none;
      }

      .cls-2 {
        clip-path: url(#clippath);
      }

      .cls-3, .cls-4 {
        fill: #f4f4f4;
      }

      .cls-5 {
        fill: #c3ac48;
      }

      .cls-6 {
        fill: #150a08;
      }

      .cls-7 {
        fill: #07eabf;
      }

      .cls-8 {
        fill: #424242;
      }

      .cls-9 {
        fill: #443c36;
      }

      .cls-10 {
        fill: #2d2629;
      }

      .cls-11 {
        fill: #462c25;
      }

      .cls-4 {
        isolation: isolate;
        opacity: .5;
      }
    </style>
    <clipPath id="clippath">
      <circle className="cls-1" cx="180" cy="180" r="180"/>
    </clipPath>
  </defs>
  <g id="Layer_1-2" data-name="Layer 1">
    <g id="_그룹_76" data-name="그룹 76">
      <g id="Layer_2-2" data-name="Layer 2">
        <g id="OBJECTS">
          <circle id="_타원_74" data-name="타원 74" className="cls-7" cx="180" cy="180" r="180"/>
          <g id="_그룹_29" data-name="그룹 29">
            <g className="cls-2">
              <g id="_그룹_28" data-name="그룹 28">
                <g id="_그룹_27" data-name="그룹 27">
                  <path id="_패스_49" data-name="패스 49" className="cls-11" d="M207.97,62.65c-6.8-34.8,31.61-55.94,54.65-31.02s5.87,43.62-17.43,45.92-31.3-15.79-31.3-15.79l-5.92,.89Z"/>
                  <path id="_패스_50" data-name="패스 50" className="cls-9" d="M191.31,61.29c6.41-19.78,40.45-3.68,48.64,9.57s4.41,32.59,4.41,32.59l-53.05-42.17Z"/>
                  <path id="_패스_51" data-name="패스 51" className="cls-11" d="M102.92,148.16c-10.3-70.4,38.95-95.95,81.8-95.01s63.07,35.03,63.07,35.03c0,0,30.67,45.57-6.88,87.22-37.54,41.65-138-27.24-138-27.24Z"/>
                  <path id="_패스_52" data-name="패스 52" className="cls-5" d="M320.18,359.98H39.89s13.09-50.47,31.68-80.37c18.58-29.89,86.82-40.08,86.82-40.08l21.64,3.61,21.61-3.61s68.31,10.16,86.82,40.08,31.73,80.37,31.73,80.37Z"/>
                  <path id="_패스_53" data-name="패스 53" className="cls-3" d="M104.89,254.76c26.38,54.3,106.41,59.39,150.18,0,.02,0-63.8-40.81-150.18,0Z"/>
                  <path id="_패스_54" data-name="패스 54" className="cls-3" d="M179.46,266.23h0c-11.64-.07-21.05-9.48-21.12-21.12v-40.71h42.38v40.59c-.01,11.73-9.53,21.24-21.26,21.24Z"/>
                  <path id="_패스_55" data-name="패스 55" className="cls-8" d="M200.72,199.71v24.92s-7.04,12.39-21.26,12.39c-11.33,0-21.12-10.75-21.12-10.75v-26.56h42.38Z"/>
                  <path id="_패스_56" data-name="패스 56" className="cls-3" d="M120.05,156.09c-11.5-17.43-24.83-6.22-24.83,6.05,0,17.79,19.31,33.11,30.34,20.34,11.03-12.76-5.51-26.4-5.51-26.4Z"/>
                  <g id="_그룹_23" data-name="그룹 23">
                    <path id="_패스_57" data-name="패스 57" className="cls-10" d="M103.35,169.03c-1.37-1.79-1.44-4.39-.2-6.97,1.21-2.8,3.87-4.71,6.91-4.96,2.27-.07,5.55,1.06,8.51,6.6l-2.07,1.11c-1.88-3.51-4.06-5.36-6.31-5.36h-.09c-2.31,.05-4.06,1.99-4.85,3.63-.84,1.73-.85,3.47-.05,4.52l-1.86,1.43Z"/>
                  </g>
                  <path id="_패스_58" data-name="패스 58" className="cls-3" d="M234.79,156.09c11.47-17.43,24.8-6.22,24.8,6.05,0,17.79-19.29,33.11-30.32,20.34s5.52-26.4,5.52-26.4Z"/>
                  <g id="_그룹_24" data-name="그룹 24">
                    <path id="_패스_59" data-name="패스 59" className="cls-10" d="M251.49,169.02l-1.87-1.42c.8-1.05,.77-2.78-.07-4.52-.87-1.79-2.72-3.61-4.9-3.64-2.32,.05-4.45,1.81-6.32,5.36l-2.07-1.1c2.91-5.53,6.16-6.58,8.43-6.61,3.06,.23,5.75,2.14,6.97,4.96,1.26,2.57,1.2,5.18-.16,6.97Z"/>
                  </g>
                  <path id="_패스_60" data-name="패스 60" className="cls-3" d="M177.35,224.63c-45.38,0-72.23-49.63-61.62-100.55,8.75-41.96,114.6-41.96,123.35,0,10.61,50.92-16.31,100.57-61.74,100.55Z"/>
                  <path id="_패스_61" data-name="패스 61" className="cls-4" d="M171.29,173.64c4.69,2.35,15.2-2.7,15.42,0s-5.58,5.11-7.7,5.11-7.72-5.11-7.72-5.11Z"/>
                  <g id="_그룹_25" data-name="그룹 25">
                    <path id="_패스_62" data-name="패스 62" className="cls-10" d="M177.28,178.56c-.93-.11-5.67-.9-7.99-5.07-1.94-3.48-1.55-8.2,1.13-14.02l2.13,.99c-2.36,5.1-2.76,9.1-1.21,11.89,1.8,3.25,5.78,3.83,6.23,3.88l-.29,2.33Z"/>
                  </g>
                  <path id="_패스_63" data-name="패스 63" className="cls-11" d="M159.56,120.94c-2.84-6.34-19.45-3.43-21.82,1.08s5.44,5.77,11.22,5.49c5.77-.28,12.32-2.53,10.61-6.57Z"/>
                  <path id="_패스_64" data-name="패스 64" className="cls-11" d="M195.37,120.94c2.84-6.34,19.45-3.43,21.8,1.08s-5.42,5.77-11.19,5.49-12.41-2.53-10.61-6.57Z"/>
                  <path id="_패스_65" data-name="패스 65" className="cls-10" d="M147.45,145.34c.03,2.55,2.12,4.59,4.67,4.57,2.55-.03,4.59-2.12,4.57-4.67s-2.12-4.59-4.67-4.57c-2.51,.03-4.54,2.06-4.57,4.57v.1Z"/>
                  <path id="_패스_66" data-name="패스 66" className="cls-10" d="M207.36,145.34c.01,2.53-2.02,4.59-4.55,4.6-2.53,.01-4.59-2.02-4.6-4.55-.01-2.53,2.02-4.59,4.55-4.6h.05c2.51,0,4.55,2.04,4.55,4.55h0s0,0,0,0Z"/>
                  <g id="_그룹_26" data-name="그룹 26">
                    <path id="_패스_67" data-name="패스 67" className="cls-6" d="M176.47,189.02c-5.1-.02-10.2-.53-15.21-1.51-.64-.12-1.06-.74-.93-1.37,.12-.64,.74-1.06,1.37-.93,17.44,3.34,30.92,.42,36.07-3.7,.51-.4,1.25-.31,1.65,.21,.39,.5,.31,1.22-.18,1.63-4.02,3.22-12.06,5.69-22.78,5.69Z"/>
                  </g>
                  <path id="_패스_68" data-name="패스 68" className="cls-4" d="M173.24,194.99c6.36,0,15.46-3.28,16.87,0s-6.36,9.85-11.17,9.39-12.98-9.41-5.7-9.39Z"/>
                  <path id="_패스_69" data-name="패스 69" className="cls-11" d="M186.76,80.42c-75.42,24.83-63.35,95.81-49.54,137.95h0s-48.41-69.57-26.75-113.12,76.29-24.83,76.29-24.83Z"/>
                </g>
              </g>
            </g>
          </g>
        </g>
      </g>
    </g>
  </g>
</svg>