<?xml version="1.0" encoding="UTF-8"?><svg id="_레이어_2" xmlns="http://www.w3.org/2000/svg" xmlns:xlink="http://www.w3.org/1999/xlink" viewBox="0 0 480 480"><defs><style>.cls-1{fill:none;}.cls-2{clip-path:url(#clippath);}.cls-3,.cls-4{fill:#f4f4f4;}.cls-5{fill:#67a843;}.cls-6{fill:#150a08;}.cls-7{fill:#07eabf;}.cls-8{fill:#424242;}.cls-9{fill:#2d2629;}.cls-4{isolation:isolate;opacity:.5;}</style><clipPath id="clippath"><circle class="cls-1" cx="240" cy="240" r="240"/></clipPath></defs><g id="_레이어_1-2"><g id="_그룹_80"><g id="Layer_1-2"><circle id="_타원_76" class="cls-7" cx="240" cy="240" r="240"/><g id="_그룹_37"><g class="cls-2"><g id="_그룹_36"><g id="_그룹_35"><path id="_패스_70" class="cls-8" d="M330.66,196.18c33.04-59.44,6.85-93.55-14.27-82.41,0,0-3.13-36.89-51.62-59.1-56-25.72-128.34-5.66-142.45,32.94-13.01,35.89,10.23,53.19,10.23,53.19,0,0-14.39,25.69,10.23,64.14,24.62,38.45,173.2,17.87,187.88-8.76Z"/><path id="_패스_71" class="cls-5" d="M449.02,484.96H30.93s12.51-70.14,41.42-110.5c28.91-40.35,135.38-55.06,135.38-55.06l32.26,4.97,32.19-4.97s106.69,14.7,135.44,55.1,41.39,110.46,41.39,110.46Z"/><path id="_패스_72" class="cls-3" d="M207.74,319.39s-3.13,.41-8.23,1.28l-10.79,2c-9.39,1.75-22.28,4.95-22.28,4.95,0,0,9.39,46.21,47.27,69.55l25.62-31.29v-33.82l-28.38-12.2-3.22-.47Z"/><path id="_패스_73" class="cls-3" d="M267.62,320.08c1.5-.39,3.05-.62,4.6-.69,13.69,1.95,27.27,4.64,40.67,8.04,0,0-11.61,46.4-49.37,69.74l-25.75-31.41v-33.69l29.84-11.99Z"/><path id="_패스_74" class="cls-3" d="M239.27,355h0c-15.52-.09-28.07-12.64-28.16-28.16v-54.29h56.5v54.13c-.01,15.64-12.7,28.32-28.34,28.32Z"/><path id="_패스_75" class="cls-8" d="M267.62,266.3v33.23s-9.39,16.52-28.35,16.52c-15.11,0-28.16-14.33-28.16-14.33v-35.41h56.5Z"/><path id="_패스_76" class="cls-3" d="M160.05,208.17c-15.33-23.28-33.1-8.32-33.1,8.04,0,23.71,25.75,44.14,40.45,27.12s-7.35-35.17-7.35-35.17Z"/><g id="_그룹_31"><path id="_패스_77" class="cls-9" d="M137.79,225.39c-1.82-2.39-1.92-5.86-.27-9.29,1.9-3.94,5.51-6.53,9.21-6.61,3.01,.08,7.4,1.41,11.36,8.8l-2.76,1.48c-2.54-4.75-5.56-7.14-8.53-7.15-3.08,.07-5.41,2.65-6.46,4.84-1.11,2.31-1.14,4.62-.06,6.03l-2.49,1.9Z"/></g><path id="_패스_78" class="cls-3" d="M313.05,208.17c15.3-23.28,33.07-8.32,33.07,8.04,0,23.71-25.72,44.14-40.42,27.12s7.35-35.17,7.35-35.17Z"/><g id="_그룹_32"><path id="_패스_79" class="cls-9" d="M335.32,225.38l-2.49-1.89c1.07-1.4,1.03-3.71-.1-6.02-1.16-2.38-3.63-4.81-6.53-4.86-3,.05-5.93,2.42-8.42,7.14l-2.77-1.46c3.89-7.37,8.41-8.88,11.24-8.81,3.72,.06,7.37,2.66,9.29,6.62,1.67,3.42,1.59,6.89-.22,9.28Z"/></g><path id="_패스_80" class="cls-3" d="M236.46,299.52c-60.51,0-96.3-66.17-82.16-134.06,11.67-55.94,152.8-55.94,164.47,0,14.14,67.89-21.74,134.1-82.32,134.06Z"/><path id="_패스_81" class="cls-4" d="M228.39,231.54c6.26,3.13,20.27-3.6,20.56,0s-7.45,6.82-10.26,6.82-10.29-6.82-10.29-6.82Z"/><g id="_그룹_33"><path id="_패스_82" class="cls-9" d="M236.36,238.1c-1.24-.15-7.56-1.2-10.66-6.76-2.58-4.64-2.07-10.93,1.51-18.69l2.84,1.31c-3.14,6.8-3.69,12.14-1.62,15.86,2.41,4.33,7.71,5.11,8.31,5.18l-.39,3.1Z"/></g><g id="_그룹_34"><path id="_패스_83" class="cls-6" d="M235.42,250.48c-6.82-.03-13.62-.7-20.32-2.01-.85-.16-1.41-.98-1.25-1.83,.16-.85,.98-1.41,1.83-1.25h0c23.26,4.46,41.24,.58,48.1-4.91,.66-.56,1.65-.47,2.21,.19,.56,.66,.47,1.65-.19,2.21-.02,.02-.04,.03-.06,.05-5.35,4.27-16.06,7.55-30.32,7.55Z"/></g><path id="_패스_84" class="cls-9" d="M212.74,161.26c-3.79-8.45-25.94-4.57-29.1,1.44s7.26,7.7,14.96,7.32,16.43-3.38,14.14-8.76Z"/><path id="_패스_85" class="cls-9" d="M260.48,161.26c3.79-8.45,25.94-4.57,29.06,1.44s-7.23,7.7-14.92,7.32-16.55-3.38-14.14-8.76Z"/><path id="_패스_86" class="cls-4" d="M231.07,258.44c8.48,0,20.65-4.38,22.53,0s-8.48,13.17-14.89,12.51-17.3-12.55-7.63-12.51Z"/><path id="_패스_87" class="cls-9" d="M196.6,193.81c.04,3.4,2.82,6.13,6.22,6.09,3.4-.04,6.13-2.82,6.09-6.22-.04-3.4-2.82-6.13-6.22-6.09-3.35,.03-6.06,2.74-6.09,6.09v.13Z"/><path id="_패스_88" class="cls-9" d="M276.47,193.81c.02,3.37-2.7,6.11-6.07,6.13-3.37,.02-6.11-2.7-6.13-6.07-.02-3.37,2.7-6.11,6.07-6.13h.06c3.35,0,6.07,2.72,6.07,6.07h0s0,0,0,0Z"/><path id="_패스_89" class="cls-8" d="M290.11,123.5c-15.65,35.2-50.06,15.14-50.06,15.14-15.89,13.32-36.45,19.73-57.1,17.8-34.6-3.44-52.65-44.93-10.51-62.57,42.14-17.64,139.72-19.83,117.67,29.63Z"/></g></g></g></g></g></g></g></svg>