<?xml version="1.0" encoding="UTF-8"?><svg id="_레이어_2" xmlns="http://www.w3.org/2000/svg" xmlns:xlink="http://www.w3.org/1999/xlink" viewBox="0 0 480 480"><defs><style>.cls-1{fill:none;}.cls-2{clip-path:url(#clippath);}.cls-3{fill:#f4f4f4;}.cls-4{fill:#07eabf;}.cls-5{fill:#424242;}.cls-6{fill:#2d2629;}.cls-7{fill:#4f4f4f;}</style><clipPath id="clippath"><circle class="cls-1" cx="240" cy="240" r="239.97"/></clipPath></defs><g id="_레이어_1-2"><g id="_그룹_79"><circle id="_타원_72" class="cls-4" cx="240" cy="240" r="240"/><g id="_그룹_21"><g class="cls-2"><g id="_그룹_20"><g id="_그룹_19"><path id="_패스_30" class="cls-6" d="M335.15,195.98c1.94-26.78,22.3-101.17-21.62-96.13-5.69-38.73-41.98-58.34-76.99-56.56-94.85,4.85-109.49,91.5-94.66,152.69,24.06,64.1,147.78,13.98,193.26,0Z"/><path id="_패스_31" class="cls-7" d="M449.03,484.94H30.99s12.51-70.13,41.42-110.49c28.9-40.35,135.36-55.06,135.36-55.06l32.26,4.97,32.19-4.97s106.67,14.7,135.42,55.09c28.75,40.39,41.39,110.46,41.39,110.46Z"/><path id="_패스_32" class="cls-6" d="M182.99,322.27c18.5-4.23,37.54-5.67,56.46-4.25h0c18.88-1.4,37.86,.03,56.31,4.25,2.69,25.43-7.79,57.47-55.93,57.59-48.58,.28-59.6-31.72-56.84-57.59Z"/><path id="_패스_33" class="cls-3" d="M239.3,354.99h0c-15.51-.09-28.07-12.64-28.15-28.15v-54.28h56.5v54.12c-.02,15.64-12.7,28.31-28.35,28.31Z"/><path id="_패스_34" class="cls-5" d="M267.64,269.4v33.22s-9.39,16.52-28.34,16.52c-15.11,0-28.15-14.33-28.15-14.33v-35.41h56.5Z"/><path id="_패스_35" class="cls-3" d="M160.1,208.18c-15.33-23.27-33.1-8.32-33.1,8.04,0,23.71,25.75,44.14,40.45,27.12,14.7-17.02-7.35-35.16-7.35-35.16Z"/><g id="_그룹_16"><path id="_패스_36" class="cls-6" d="M137.83,225.4c-1.82-2.39-1.92-5.86-.27-9.28,1.9-3.94,5.51-6.53,9.21-6.61,3.11-.12,7.4,1.41,11.36,8.8l-2.76,1.48c-2.51-4.68-5.42-7.15-8.42-7.15h-.12c-3.08,.07-5.4,2.65-6.46,4.84-1.11,2.31-1.14,4.62-.06,6.03l-2.49,1.9Z"/></g><path id="_패스_37" class="cls-3" d="M313.07,208.18c15.3-23.27,33.07-8.32,33.07,8.04,0,23.71-25.71,44.14-40.42,27.12-14.7-17.02,7.35-35.16,7.35-35.16Z"/><g id="_그룹_17"><path id="_패스_38" class="cls-6" d="M335.33,225.4l-2.49-1.89c1.07-1.4,1.03-3.71-.09-6.02-1.16-2.38-3.62-4.81-6.53-4.85-3.05,.04-5.93,2.41-8.42,7.14l-2.77-1.46c3.89-7.37,8.38-8.9,11.24-8.81,3.72,.06,7.36,2.66,9.29,6.62,1.67,3.43,1.58,6.89-.22,9.28Z"/></g><path id="_패스_39" class="cls-3" d="M236.49,299.53c-60.5,0-96.29-66.16-82.15-134.04,11.67-55.93,152.78-55.93,164.45,0,14.14,67.88-21.74,134.08-82.3,134.04Z"/><path id="_패스_40" class="cls-6" d="M325.8,187.76s-.78,60.94-23.52,89.44c-22.74,28.5-62.97,30.34-62.97,30.34,0,0-45.08-1.85-67.79-30.34s-23.52-89.44-23.52-89.44l3.13-6.26c2.28,16.33,12.98,58.65,25.84,68.01,21.02-7.04,36.79-7.82,60.81-7.82,20.06,.21,40.09,1.88,59.91,5,10.32-9.1,22.84-50.33,25.03-65.19l3.1,6.26Z"/><path id="_패스_41" class="cls-3" d="M228.42,231.55c6.26,3.13,20.27-3.6,20.55,0s-7.45,6.82-10.26,6.82-10.29-6.82-10.29-6.82Z"/><g id="_그룹_18"><path id="_패스_42" class="cls-6" d="M236.39,238.11c-1.23-.15-7.56-1.2-10.65-6.76-2.58-4.64-2.07-10.93,1.51-18.69l2.84,1.31c-3.14,6.8-3.69,12.13-1.62,15.85,2.41,4.33,7.71,5.1,8.31,5.18l-.38,3.1Z"/></g><path id="_패스_43" class="cls-3" d="M214.56,249.63c23.15,2.5,38.63,0,49.64,.31,0,0-13.89,19.61-30.19,15.64s-19.46-15.95-19.46-15.95Z"/><path id="_패스_44" class="cls-6" d="M212.77,161.29c-3.79-8.45-25.93-4.57-29.09,1.44s7.26,7.7,14.95,7.32,16.42-3.38,14.14-8.76Z"/><path id="_패스_45" class="cls-6" d="M260.51,161.29c3.75-8.45,25.93-4.57,29.06,1.44s-7.23,7.7-14.92,7.32-16.55-3.38-14.14-8.76Z"/><path id="_패스_46" class="cls-3" d="M230.57,271.34c8.48,0,20.61-4.38,22.49,0s-8.45,13.17-14.89,12.51-17.27-12.54-7.6-12.51Z"/><path id="_패스_47" class="cls-6" d="M196.63,193.82c.03,3.32,2.75,5.98,6.07,5.95s5.98-2.75,5.95-6.07-2.75-5.98-6.07-5.95c-3.27,.03-5.91,2.68-5.95,5.95v.12Z"/><circle id="_타원_72-2" class="cls-6" cx="270.43" cy="193.83" r="6.1"/><path id="_패스_48" class="cls-6" d="M190.22,124.6l14.08-3.41s-18.36,29.47,20.77,35.29,79.86-20.83,47.36-34.41l11.82-.78-28.44-21.9-65.6,25.21Z"/></g></g></g></g></g></g></svg>