<?xml version="1.0" encoding="UTF-8"?><svg id="_레이어_2" xmlns="http://www.w3.org/2000/svg" xmlns:xlink="http://www.w3.org/1999/xlink" viewBox="0 0 480 480"><defs><style>.cls-1{fill:none;}.cls-2{clip-path:url(#clippath);}.cls-3{fill:#f4e6e1;}.cls-4{fill:#f4ddd4;}.cls-5,.cls-6{fill:#f4f4f4;}.cls-7{fill:#150a08;}.cls-8{fill:#07eabf;}.cls-9{fill:#424242;}.cls-10{fill:#443c36;}.cls-11{fill:#2d2629;}.cls-12{fill:#631903;}.cls-13{clip-path:url(#clippath-1);}.cls-6{isolation:isolate;opacity:.5;}</style><clipPath id="clippath"><circle className="cls-1" cx="240" cy="240" r="240"/></clipPath><clipPath id="clippath-1"><path className="cls-1" d="M449.05,484.97H30.96s12.52-70.14,41.42-110.5c28.91-40.35,135.38-55.07,135.38-55.07l32.26,4.97,32.19-4.97s106.69,14.7,135.44,55.1c28.75,40.4,41.39,110.47,41.39,110.47Z"/></clipPath></defs><g id="_레이어_1-2"><g id="_그룹_77"><g id="Layer_2"><g id="Layer_1-2-2"><circle id="_타원_78" className="cls-4" cx="240" cy="240" r="240"/><circle id="_타원_79" className="cls-3" cx="240" cy="240" r="240"/><g id="_그룹_48"><circle id="_타원_80" className="cls-8" cx="240" cy="240" r="240"/><g className="cls-2"><g id="_그룹_47"><g id="_그룹_46"><path id="_패스_90" className="cls-10" d="M335.19,199.92c25.5-46.15,15.64-124.55-40.14-143.92-57.82-20.21-107.59-3.13-112.07,27.91,0,0-30.6-7.16-50.87,25.56-20.27,32.73-5.69,87.66,24.62,120.99,30.32,33.32,157.72,7.01,178.46-30.53Z"/><path id="_패스_91" className="cls-12" d="M449.05,484.97H30.96s12.52-70.14,41.42-110.5,135.38-55.07,135.38-55.07l32.26,4.97,32.19-4.97s106.69,14.7,135.44,55.1c28.75,40.4,41.39,110.47,41.39,110.47Z"/><g id="_그룹_41"><g className="cls-13"><g id="_그룹_40"><g id="_그룹_39"><path id="_패스_92" className="cls-11" d="M34.88,344.78H469.6v37.92H3.53v-37.92h31.35Z"/><path id="_패스_93" className="cls-11" d="M34.88,402.34H469.6v37.95H3.53v-37.95h31.35Z"/><path id="_패스_94" className="cls-11" d="M34.88,459.94H469.6v37.92H3.53v-37.92h31.35Z"/></g></g></g></g><path id="_패스_96" className="cls-5" d="M177.51,324.69s19.43,48.27,63.04,48.27,60.1-48.27,60.1-48.27c0,0-59-22.75-123.14,0Z"/><path id="_패스_97" className="cls-5" d="M239.3,355.01h0c-15.52-.09-28.07-12.64-28.16-28.16v-54.28h56.5v54.13c-.02,15.64-12.7,28.31-28.34,28.31Z"/><path id="_패스_98" className="cls-9" d="M267.65,266.31v33.23s-9.39,16.52-28.35,16.52c-15.11,0-28.16-14.33-28.16-14.33v-35.42h56.5Z"/><path id="_패스_99" className="cls-5" d="M160.08,208.18c-15.33-23.28-33.1-8.32-33.1,8.04,0,23.71,25.75,44.14,40.45,27.12s-7.35-35.17-7.35-35.17Z"/><g id="_그룹_42"><path id="_패스_100" className="cls-11" d="M137.82,225.4c-1.82-2.39-1.92-5.86-.27-9.29,1.9-3.94,5.51-6.53,9.21-6.61,3.14-.13,7.4,1.41,11.36,8.8l-2.76,1.48c-2.54-4.75-5.53-7.15-8.53-7.15-3.08,.07-5.41,2.65-6.46,4.84-1.11,2.31-1.13,4.62-.06,6.03l-2.49,1.9Z"/></g><path id="_패스_101" className="cls-5" d="M313.08,208.18c15.3-23.28,33.07-8.32,33.07,8.04,0,23.71-25.72,44.14-40.42,27.12s7.35-35.17,7.35-35.17Z"/><g id="_그룹_43"><path id="_패스_102" className="cls-11" d="M335.35,225.4l-2.49-1.89c1.07-1.4,1.03-3.71-.09-6.02-1.16-2.38-3.63-4.81-6.53-4.86-2.92,.04-5.93,2.41-8.42,7.14l-2.77-1.46c3.88-7.37,8.29-8.8,11.23-8.81,3.72,.06,7.37,2.66,9.3,6.62,1.66,3.42,1.58,6.89-.23,9.28Z"/></g><path id="_패스_103" className="cls-5" d="M236.49,299.54c-60.51,0-96.3-66.17-82.16-134.06,11.67-55.94,152.8-55.94,164.47,0,14.14,67.89-21.74,134.09-82.32,134.06Z"/><path id="_패스_104" className="cls-5" d="M260.1,142.51c21.24-37.54-21.56-63.92-40.67-52.53-19.12,11.39-23.31,24.06-22.65,39.05,0,0-7.41-26.22-24.15-14.11-16.74,12.11-10.95,45.74-10.95,45.74l10.95,5.88,87.47-24.03Z"/><path id="_패스_105" className="cls-6" d="M228.41,231.55c6.26,3.13,20.27-3.6,20.55,0s-7.45,6.82-10.26,6.82-10.29-6.82-10.29-6.82Z"/><g id="_그룹_44"><path id="_패스_106" className="cls-11" d="M236.39,238.11c-1.24-.15-7.57-1.2-10.66-6.76-2.58-4.64-2.07-10.93,1.51-18.69l2.84,1.31c-3.14,6.8-3.69,12.13-1.62,15.86,2.41,4.33,7.71,5.11,8.31,5.18l-.39,3.1Z"/></g><g id="_그룹_45"><path id="_패스_107" className="cls-7" d="M235.46,250.5c-6.82-.03-13.62-.71-20.32-2.02-.85-.16-1.41-.98-1.24-1.83s.98-1.41,1.83-1.24c23.28,4.45,41.24,.58,48.1-4.91,.67-.55,1.65-.45,2.2,.22,.55,.67,.45,1.65-.22,2.2-.01,0-.02,.02-.03,.03-5.35,4.27-16.05,7.55-30.32,7.55Z"/></g><path id="_패스_108" className="cls-10" d="M212.77,161.28c-3.79-8.45-25.94-4.57-29.1,1.44s7.26,7.7,14.96,7.32,16.43-3.38,14.14-8.76Z"/><path id="_패스_109" className="cls-10" d="M260.51,161.28c3.75-8.45,25.94-4.57,29.07,1.44s-7.23,7.7-14.92,7.32-16.55-3.38-14.14-8.76Z"/><path id="_패스_110" className="cls-6" d="M231.1,258.46c8.48,0,20.65-4.38,22.53,0s-8.48,13.17-14.89,12.51-17.3-12.55-7.63-12.51Z"/><path id="_패스_111" className="cls-11" d="M196.63,193.82c.03,3.4,2.82,6.13,6.22,6.1,3.4-.03,6.13-2.82,6.1-6.22-.03-3.4-2.82-6.13-6.22-6.1-3.35,.03-6.06,2.74-6.1,6.1v.12Z"/><path id="_패스_112" className="cls-11" d="M276.5,193.82c.02,3.37-2.7,6.11-6.07,6.13-3.37,.02-6.11-2.7-6.13-6.07-.02-3.37,2.7-6.11,6.07-6.13h.06c3.35,0,6.07,2.72,6.07,6.07h0Z"/><path id="_패스_113" className="cls-10" d="M196.63,129.02c2.22-30.82,45.33-10.54,69.24,15.17,28.16,30.29,50.31,35.95,69.33,22.34s-5.85-75.09-64.76-88.6c-58.91-13.51-81.94,29.56-73.8,51.09Z"/><path id="_패스_114" className="cls-10" d="M196.63,129.02c-11.29-22.37-39.89,19.49-45.37,58.72-3.28,23.59-7.35-7.35-13.33-13.27s-5.07-52.44,28.53-62.76,30.16,17.3,30.16,17.3Z"/></g></g></g></g><g id="_그룹_49"><path id="_패스_115" className="cls-7" d="M226.1,219.21h-52.69c-4.76,0-8.62-3.86-8.63-8.63v-26.84c0-4.76,3.86-8.62,8.63-8.63h52.69c4.76,0,8.62,3.86,8.63,8.63v26.84c0,4.76-3.86,8.62-8.63,8.63Zm-52.69-40.64c-2.86,0-5.17,2.32-5.18,5.18v26.84c0,2.86,2.32,5.17,5.18,5.18h52.69c2.86,0,5.17-2.32,5.18-5.18v-26.84c0-2.86-2.32-5.17-5.18-5.18h-52.69Z"/></g><g id="_그룹_50"><path id="_패스_116" className="cls-7" d="M299.67,219.21h-52.68c-4.76,0-8.62-3.86-8.63-8.63v-26.84c0-4.76,3.86-8.62,8.63-8.63h52.68c4.76,0,8.62,3.86,8.63,8.63v26.84c0,4.76-3.86,8.62-8.63,8.63Zm-52.68-40.64c-2.86,0-5.17,2.32-5.18,5.18v26.84c0,2.86,2.32,5.17,5.18,5.18h52.68c2.86,0,5.17-2.32,5.18-5.18v-26.84c0-2.86-2.32-5.17-5.18-5.18h-52.68Z"/></g><g id="_그룹_51"><path id="_패스_117" className="cls-7" d="M244.47,198.96c-.95,0-1.72-.77-1.72-1.72h0c0-3.46-2.8-6.25-6.25-6.25s-6.25,2.8-6.25,6.25c0,.95-.77,1.73-1.73,1.73s-1.73-.77-1.73-1.73c.15-5.35,4.62-9.57,9.97-9.42,5.14,.15,9.27,4.28,9.42,9.42,0,.95-.77,1.72-1.72,1.72h0Z"/></g><g id="_그룹_52"><path id="_패스_118" className="cls-7" d="M322.44,198.51h-19.7c-.95,0-1.72-.77-1.72-1.72s.77-1.72,1.72-1.72h19.7c.95,0,1.73,.77,1.73,1.72s-.77,1.72-1.73,1.72Z"/></g><g id="_그룹_53"><path id="_패스_119" className="cls-7" d="M170.25,198.51h-19.53c-.95,0-1.72-.77-1.72-1.72s.77-1.72,1.72-1.72h19.53c.95,0,1.72,.77,1.72,1.72s-.77,1.72-1.72,1.72Z"/></g></g></g></g></g></svg>