<?xml version="1.0" encoding="UTF-8"?>
<svg id="Layer_2" data-name="Layer 2" xmlns="http://www.w3.org/2000/svg" xmlns:xlink="http://www.w3.org/1999/xlink" viewBox="0 0 360 360">
  <defs>
    <style>
      .cls-1 {
        fill: none;
      }

      .cls-2 {
        clip-path: url(#clippath);
      }

      .cls-3 {
        fill: #f4ddd4;
      }

      .cls-4, .cls-5 {
        fill: #f4f4f4;
      }

      .cls-6 {
        fill: #333;
      }

      .cls-7 {
        fill: #150a08;
      }

      .cls-8 {
        fill: #07eabf;
      }

      .cls-9 {
        fill: #424242;
      }

      .cls-10 {
        fill: #2d2629;
      }

      .cls-11 {
        fill: #4b4237;
      }

      .cls-5 {
        isolation: isolate;
        opacity: .5;
      }
    </style>
    <clipPath id="clippath">
      <circle className="cls-1" cx="180" cy="180" r="180"/>
    </clipPath>
  </defs>
  <g id="Layer_1-2" data-name="Layer 1">
    <g id="_그룹_81" data-name="그룹 81">
      <g id="Layer_2-3" data-name="Layer 2-3">
        <g id="Layer_1-2-2" data-name="Layer 1-2-2">
          <circle id="_타원_84" data-name="타원 84" className="cls-3" cx="180" cy="180" r="180"/>
          <g id="_그룹_68" data-name="그룹 68">
            <circle id="_타원_85" data-name="타원 85" className="cls-8" cx="180" cy="180" r="180"/>
            <g className="cls-2">
              <g id="_그룹_67" data-name="그룹 67">
                <g id="_그룹_66" data-name="그룹 66">
                  <path id="_패스_140" data-name="패스 140" className="cls-6" d="M258.55,238.71c-22.71,13.68-56.95,31.7-79.34,31.4h0l.52,4.18c-23.14,.3-61.85-20.65-86.66-35.71-8.54-5.14-11.29-16.23-6.15-24.76,.52-.86,1.11-1.67,1.76-2.44,4.81-5.91,7.37-14.08,2.35-25.37-12.58-27.48-15.7-67.63,2.35-108.27,16.42-37.38,59.77-51.74,82.6-34.75,22.76-16.96,66.05-2.6,82.62,34.77,18.02,40.64,14.88,80.79,2.35,108.27-5.11,11.17-2.56,19.45,2.35,25.37,6.44,7.66,5.45,19.09-2.2,25.53-.79,.67-1.64,1.26-2.54,1.79h0Z"/>
                  <path id="_패스_141" data-name="패스 141" className="cls-11" d="M320.17,359.98H39.88s13.09-50.47,31.68-80.37c18.59-29.89,86.82-40.08,86.82-40.08l21.64,3.61,21.61-3.61s68.31,10.16,86.82,40.08c18.51,29.92,31.72,80.37,31.72,80.37Z"/>
                  <path id="_패스_142" data-name="패스 142" className="cls-4" d="M179.45,266.23h0c-11.64-.06-21.06-9.48-21.12-21.12v-40.71h42.38v40.59c-.01,11.73-9.53,21.23-21.26,21.24Z"/>
                  <path id="_패스_143" data-name="패스 143" className="cls-9" d="M200.71,199.71v24.92s-7.04,12.39-21.26,12.39c-11.33,0-21.12-10.75-21.12-10.75v-26.56h42.38Z"/>
                  <path id="_패스_144" data-name="패스 144" className="cls-4" d="M120.04,156.09c-11.5-17.43-24.83-6.22-24.83,6.05,0,17.79,19.31,33.11,30.34,20.34s-5.51-26.4-5.51-26.4Z"/>
                  <g id="_그룹_62" data-name="그룹 62">
                    <path id="_패스_145" data-name="패스 145" className="cls-10" d="M103.34,169.03c-1.37-1.79-1.44-4.39-.2-6.97,1.21-2.8,3.86-4.71,6.91-4.96,2.32-.07,5.55,1.06,8.52,6.6l-2.07,1.11c-1.88-3.51-4.06-5.36-6.31-5.36h-.09c-2.31,.05-4.06,1.99-4.85,3.63-.84,1.73-.85,3.47-.04,4.52l-1.87,1.42Z"/>
                  </g>
                  <path id="_패스_146" data-name="패스 146" className="cls-4" d="M234.78,156.09c11.47-17.43,24.8-6.22,24.8,6.05,0,17.79-19.29,33.11-30.32,20.34s5.52-26.4,5.52-26.4Z"/>
                  <g id="_그룹_63" data-name="그룹 63">
                    <path id="_패스_147" data-name="패스 147" className="cls-10" d="M251.48,169.02l-1.87-1.42c.8-1.05,.77-2.78-.08-4.52-.87-1.79-2.72-3.61-4.9-3.64-2.34,.05-4.44,1.81-6.31,5.36l-2.08-1.1c2.91-5.53,6.22-6.58,8.43-6.61,3.06,.24,5.74,2.14,6.97,4.96,1.25,2.57,1.19,5.18-.17,6.97Z"/>
                  </g>
                  <path id="_패스_148" data-name="패스 148" className="cls-4" d="M177.34,224.63c-45.38,0-72.22-49.63-61.62-100.55,8.75-41.96,114.6-41.96,123.36,0,10.61,50.92-16.31,100.57-61.74,100.55Z"/>
                  <path id="_패스_149" data-name="패스 149" className="cls-5" d="M171.28,173.64c4.69,2.35,15.21-2.7,15.42,0s-5.59,5.11-7.7,5.11-7.72-5.11-7.72-5.11Z"/>
                  <g id="_그룹_64" data-name="그룹 64">
                    <path id="_패스_150" data-name="패스 150" className="cls-10" d="M177.27,178.56c-.93-.11-5.67-.9-8-5.07-1.94-3.48-1.55-8.2,1.14-14.02l2.13,.99c-2.36,5.1-2.77,9.1-1.22,11.89,1.81,3.25,5.78,3.83,6.23,3.88l-.28,2.33Z"/>
                  </g>
                  <path id="_패스_151" data-name="패스 151" className="cls-10" d="M159.55,120.94c-2.84-6.34-19.45-3.43-21.82,1.08s5.44,5.77,11.22,5.49,12.32-2.53,10.61-6.57Z"/>
                  <path id="_패스_152" data-name="패스 152" className="cls-10" d="M195.36,120.94c2.82-6.34,19.45-3.43,21.8,1.08s-5.42,5.77-11.19,5.49-12.41-2.53-10.61-6.57Z"/>
                  <path id="_패스_153" data-name="패스 153" className="cls-10" d="M147.44,145.34c.03,2.55,2.12,4.59,4.66,4.56s4.59-2.12,4.56-4.66c-.03-2.55-2.12-4.59-4.66-4.56-2.51,.03-4.54,2.05-4.56,4.56v.1Z"/>
                  <path id="_패스_154" data-name="패스 154" className="cls-10" d="M207.35,145.34c.01,2.53-2.02,4.59-4.55,4.6-2.53,.01-4.59-2.02-4.6-4.55-.01-2.53,2.02-4.59,4.55-4.6h.05c2.51,0,4.55,2.04,4.55,4.55h0Z"/>
                  <g id="_그룹_65" data-name="그룹 65">
                    <path id="_패스_155" data-name="패스 155" className="cls-7" d="M176.46,189.02c-5.11-.02-10.2-.53-15.21-1.51-.64-.12-1.05-.74-.93-1.37,.12-.64,.74-1.05,1.37-.93,17.43,3.34,30.92,.42,36.08-3.7,.52-.39,1.25-.29,1.64,.23,.38,.5,.3,1.2-.18,1.6-4.02,3.22-12.06,5.69-22.77,5.69Z"/>
                  </g>
                  <path id="_패스_156" data-name="패스 156" className="cls-5" d="M173.23,194.99c6.36,0,15.46-3.28,16.87,0s-6.36,9.85-11.17,9.39-12.98-9.41-5.7-9.39Z"/>
                  <path id="_패스_157" data-name="패스 157" className="cls-4" d="M182.71,106.7c6.01-15.04,3.8-33.46-5.3-33.86s-20.84,13.42-20.84,13.42l4.9,20.44h21.24Z"/>
                  <path id="_패스_158" data-name="패스 158" className="cls-6" d="M174.2,72.44c-4.48,35.69,56.88,51.93,70.04,49.77,13.16-2.16,9.69-44.3-23.47-51.9-33.16-7.6-44.8-11.53-46.58,2.13Z"/>
                  <path id="_패스_159" data-name="패스 159" className="cls-6" d="M177.41,72.74c4.46,35.69-56.78,51.62-69.93,49.28-13.14-2.35-9.69-44.11,23.44-51.62s44.77-11.22,46.48,2.35Z"/>
                </g>
              </g>
            </g>
          </g>
        </g>
      </g>
    </g>
  </g>
</svg>