<?xml version="1.0" encoding="UTF-8"?><svg id="_레이어_2" xmlns="http://www.w3.org/2000/svg" viewBox="0 0 300 300"><defs><style>.cls-1{fill:#00f7c7;}.cls-2{fill:#b0f7f0;}.cls-3{fill:#7173ff;}.cls-4{fill:#4f22f2;}</style></defs><g id="_레이어_1-2"><g id="_그룹_74"><path id="_패스_209" className="cls-4" d="M231.09,69.15l-81.09,81.38V81.38S231.09,0,231.09,0V69.15Z"/><path id="_패스_210" className="cls-3" d="M150,149.47l-81.09,81.38H0s81.09-81.38,81.09-81.38h68.91Z"/><path id="_패스_211" className="cls-3" d="M300,69.15l-81.09,81.38h-68.91s81.09-81.38,81.09-81.38h68.91Z"/><path id="_패스_212" className="cls-1" d="M150,218.62l-81.09,81.38v-69.15s81.09-81.38,81.09-81.38v69.15Z"/><path id="_패스_217" className="cls-1" d="M231.09,1.05h68.91V70.2h-68.91V1.05Z"/><rect id="_사각형_46" className="cls-2" x="0" y="230.85" width="68.91" height="69.15"/><path id="_패스_213" className="cls-2" d="M300,230.85h-68.91s-81.09-81.38-81.09-81.38h68.91s81.09,81.38,81.09,81.38Z"/><path id="_패스_214" className="cls-1" d="M150,150.53L68.9,69.15V0s81.09,81.38,81.09,81.38v69.15Z"/><path id="_패스_215" className="cls-4" d="M231.1,299.99l-81.09-81.38v-69.14s81.09,81.38,81.09,81.38v69.14Z"/><path id="_패스_216" className="cls-2" d="M150,150.53H81.1S0,69.14,0,69.14H68.9s81.09,81.38,81.09,81.38Z"/><rect id="_사각형_47" className="cls-3" x="231.09" y="230.85" width="68.9" height="69.14"/><rect id="_사각형_48" className="cls-4" x="1.05" y="1.05" width="68.9" height="69.14"/></g></g></svg>