<?xml version="1.0" encoding="UTF-8"?><svg id="_레이어_2" xmlns="http://www.w3.org/2000/svg" viewBox="0 0 300 300"><defs><style>.cls-1{fill:#00f7c7;}.cls-2{fill:#b0f7f0;}.cls-3{fill:#7173ff;}.cls-4{fill:#4f22f2;}.cls-5{opacity:1;}</style></defs><g id="_레이어_1-2"><g id="_그룹_70" class="cls-5"><path id="_패스_160" class="cls-4" d="M299.64,119.64l-26.38-26.38-63.87-63.87L180.01,0h-.22l-29.79,29.67-27.99,27.88L56.44,122.87l29.55,29.44,65.57-65.31,27.99-27.89,64,63.75,26.43,26.33,30.01,29.9v-59.1l-.36-.35Z"/><path id="_패스_161" class="cls-3" d="M269.98,149.19l-26.43-26.33-64-63.75-27.99,27.89,64,63.75,26.43,26.33-65.56,65.31-26.42,26.32-30.72,30.6,.7,.7h60.02l.7-.7,26.38-26.37,65.44-65.44,27.48-27.48v-.93l-30.02-29.9Z"/><path id="_패스_162" class="cls-2" d="M150,29.67L179.79,0h-59.8l-27.82,27.83L26.73,93.27,.36,119.64l29.66,29.55,29.55,29.44,64,63.75,26.42-26.32-64-63.75-29.55-29.44L122.01,57.56l27.99-27.89Z"/><path id="_패스_163" class="cls-1" d="M215.56,150.75l-65.57,65.31-26.42,26.32-64-63.75-29.56-29.44L.35,119.64l-.35,.35v60.02l29.04,29.03,63.87,63.88,26.38,26.38,30.71-30.6,26.42-26.32,65.56-65.31-26.43-26.32Z"/></g></g></svg>