<?xml version="1.0" encoding="UTF-8"?><svg id="_레이어_2" xmlns="http://www.w3.org/2000/svg" viewBox="0 0 300 300"><defs><style>.cls-1{fill:#00f7c7;}.cls-2{fill:#b0f7f0;}.cls-3{fill:#405fff;}.cls-4{fill:#7173ff;}.cls-5{fill:#4f22f2;}</style></defs><g id="_레이어_1-2"><g id="_그룹_72"><g id="_그룹_71"><path id="_패스_164" class="cls-3" d="M150.43,150.71l.17,.05,.1-.13-.27,.08Z"/><path id="_패스_165" class="cls-3" d="M150,150.85v.7l.43-.57-.17-.21-.27,.08Z"/><path id="_패스_166" class="cls-3" d="M150.27,150.76l.17,.21,.17-.21-.17-.05-.17,.05Z"/><path id="_패스_167" class="cls-3" d="M150.17,150.63l-.17-.05v.27l.27-.08-.1-.13Z"/><path id="_패스_168" class="cls-3" d="M150,150.41v.17l.17,.05-.17-.22Z"/><path id="_패스_169" class="cls-3" d="M150.43,150.71l-.27-.08,.1,.13,.17-.05Z"/><path id="_패스_170" class="cls-4" d="M243.3,29.42l-.59-.78L150,0V150.41l.17,.21,.27,.08,.27-.08,149.3-46.14v-.85L243.3,29.42Z"/><path id="_패스_171" class="cls-4" d="M150.43,150.98l-.43,.57-91.75,120.1,91.75,28.35,92.45-28.57-92.02-120.45Z"/><path id="_패스_172" class="cls-1" d="M150.7,150.63l-.1,.13-.17,.21,92.01,120.45,.26-.08,56.94-74.53,.36-.47V104.5l-149.3,46.13Z"/><path id="_패스_173" class="cls-5" d="M0,104.23v92.12l.52,.69,56.77,74.31,.96,.3,91.75-120.1v-.97L0,104.23Z"/><path id="_패스_174" class="cls-1" d="M57.3,28.65l-.16,.21L0,103.65v.58l150,46.35V0L57.3,28.65Z"/></g><path id="_패스_175" class="cls-2" d="M150,67.93l-82.45,56.97,31.49,92.19h101.92l31.49-92.19-82.45-56.97Z"/></g></g></svg>