<svg xmlns="http://www.w3.org/2000/svg" viewBox="0 0 100 80.03"><defs><style>.cls-1{fill:#eac049;}.cls-2{fill:#0e283e;}</style></defs><g id="Layer_2" data-name="Layer 2"><g id="Layer_1-2" data-name="Layer 1"><path className="cls-1" d="M62.41,18.33a18.53,18.53,0,0,0-26.14,0,18.32,18.32,0,0,0-5.4,13.52s0,.1,0,.15a4.32,4.32,0,0,0,3.81,4.17l.14,0a11.43,11.43,0,0,1,9.66,9.62.68.68,0,0,0,0,.15,4.29,4.29,0,0,0,1.23,2.53,4.37,4.37,0,0,0,3,1.26h.06A18.41,18.41,0,0,0,62.41,18.33Zm-5,5.2a2.7,2.7,0,1,1,2.69,2.69A2.68,2.68,0,0,1,57.42,23.53Zm5,14.38a1,1,0,1,1,1-1A1,1,0,0,1,62.47,37.91Zm.34-4.9a1.66,1.66,0,1,1,1.67-1.66A1.66,1.66,0,0,1,62.81,33Z"/><path className="cls-2" d="M74.33,15.75,53,.94a5.26,5.26,0,0,0-6,0l-3.59,2.5V2.69A2.69,2.69,0,0,0,40.71,0H37.38a2.69,2.69,0,0,0-2.7,2.69V9.5l-.87.6-8.14,5.65A1.63,1.63,0,0,0,25.12,17a1.67,1.67,0,0,0,.25.88l.71,1a1.66,1.66,0,0,0,2.25.41L47,6.31a5.25,5.25,0,0,1,3-.94H50a5.25,5.25,0,0,1,3,.94l18.67,13a1.66,1.66,0,0,0,2.25-.41l.71-1a1.67,1.67,0,0,0,.25-.88A1.63,1.63,0,0,0,74.33,15.75Z"/><path className="cls-2" d="M3.3,60.89H1.48A1.47,1.47,0,0,0,0,62.36V78.55A1.48,1.48,0,0,0,1.48,80H3.3a1.48,1.48,0,0,0,1.48-1.48V62.36A1.47,1.47,0,0,0,3.3,60.89Z"/><path className="cls-2" d="M99.79,75.75a.74.74,0,0,0-.12-.13,1.21,1.21,0,0,0-.88-.38H89V62a1,1,0,0,0-.2-.58.55.55,0,0,0-.12-.14,1.23,1.23,0,0,0-.89-.37H85.45a1.19,1.19,0,0,0-1.15.8,1,1,0,0,0-.06.35V78.55A1.49,1.49,0,0,0,85.72,80H98.79A1.19,1.19,0,0,0,100,78.88V76.39A1.09,1.09,0,0,0,99.79,75.75Z"/><path className="cls-2" d="M50.59,65.67A5.9,5.9,0,0,0,45.93,61a5.79,5.79,0,0,0-1.19-.12H33.06a1.47,1.47,0,0,0-1.48,1.47V78.55A1.48,1.48,0,0,0,33.06,80h2.09a1.19,1.19,0,0,0,1.21-1.15v-6h8.41s.54,0,.79-.06.25,0,.37-.06a6,6,0,0,0,4.66-4.67,5.79,5.79,0,0,0,.12-1.19A6,6,0,0,0,50.59,65.67Zm-5.85,2.39H36.36V65.67h8.38a1.2,1.2,0,0,1,0,2.39Z"/><path className="cls-2" d="M26.27,60.89H24.44A1.49,1.49,0,0,0,23,62.36h0V72.49L14.07,61.71a2.33,2.33,0,0,0-1.79-.82H10.09a1.49,1.49,0,0,0-1.48,1.48V78.54A1.49,1.49,0,0,0,10.09,80h1.83a1.48,1.48,0,0,0,1-.44,1.44,1.44,0,0,0,.44-1h0V68.42L22.29,79.2a2.34,2.34,0,0,0,1.8.83h2.18a1.48,1.48,0,0,0,1.48-1.48V62.37A1.49,1.49,0,0,0,26.27,60.89Z"/><path className="cls-1" d="M82.05,71.37a1.52,1.52,0,0,0-.41-.39h0L67.87,61.49l-.55-.38L67.17,61a1.76,1.76,0,0,0-.2-.09h-.08a.66.66,0,0,0-.28,0,.63.63,0,0,0-.27,0h-.08a1.76,1.76,0,0,0-.2.09l-.15.08-.55.38-2.67,1.85V62.8a1.56,1.56,0,0,0-1.57-1.56H59.19a1.56,1.56,0,0,0-1.56,1.56v4l-6,4.15h0a1.38,1.38,0,0,0-.41.39,1.48,1.48,0,0,0,.35,2l1.37,1a1.48,1.48,0,0,0,1.59,0h0l10-6.5v0l2.15-1.41,2.16,1.42h0l1.85,1.2h0l8.11,5.29h0a1.48,1.48,0,0,0,1.59,0l1.37-1A1.48,1.48,0,0,0,82.05,71.37Z"/><circle className="cls-1" cx="66.61" cy="70.14" r="1.65"/></g></g></svg>