<?xml version="1.0" encoding="UTF-8"?><svg id="_레이어_2" xmlns="http://www.w3.org/2000/svg" viewBox="0 0 330 560"><defs><style>.cls-1{opacity:.09;}.cls-2{fill:#888;}</style></defs><g id="_레이어_1-2"><g id="Layer_2" className="cls-1"><g id="Layer_1"><rect id="_사각형_13" className="cls-2" x="294.49" width="35.51" height="560"/><path id="_패스_8" className="cls-2" d="M44,0S5.1,0,0,39.36V560H33.58V297.6h23.15v262.4h35.43V38.59S89.93,0,44,0Zm-10.42,266.88V43.07s-.31-10.88,12.73-10.88c0,0,9.65-.77,10.65,11.27v223.82l-23.39-.39Z"/><path id="_패스_9" className="cls-2" d="M204.49,456.27v84.9h-22.54v-103.42c0-5.48,10.58-5.48,10.58-5.48,7.76,.05,15.51-.6,23.16-1.93,24.78-5.25,23.16-25.7,23.16-25.7v-97.09s-1.93-22-47.86-22c0,0-38.6,0-44,22.15v82.89h33.58v-80.89s0-5.87,12.51-5.87c0,0,9.65-.46,10.65,6.33v94.47s1.62,9.57-13.97,9.8c0,0-40.53,.93-42.77,21.84v123.48h93.48v-103.5h-35.97Z"/></g></g></g></svg>